<?xml version="1.0" encoding="utf-8"?>
<!-- Generator: Adobe Illustrator 24.2.0, SVG Export Plug-In . SVG Version: 6.00 Build 0)  -->
<svg version="1.1" id="Layer_1" xmlns="http://www.w3.org/2000/svg" xmlns:xlink="http://www.w3.org/1999/xlink" x="0px" y="0px"
	 viewBox="0 0 192.8 192.8" style="enable-background:new 0 0 192.8 192.8;" xml:space="preserve">
<g style="display:none;">
	<path style="display:inline;" d="M54.3,138.3h-2.9l-0.2-4.8l-0.6-6h-0.2l-3.5,9.1h-2.6l-3.2-9.1h-0.2l-0.6,5.7l-0.3,5.1h-2.8
		l1.6-15.7h3.8l0.6,2.3l2.5,7.4h0.2l2.6-7.4l0.7-2.3h3.7L54.3,138.3z"/>
	<path style="display:inline;" d="M71.6,138.3h-3.4l-0.4-2l-0.4-1.5l-3.1-0.1l-2.7,0.1l-0.4,1.3l-0.4,2.2h-3.3l5.3-15.7h3.9
		L71.6,138.3z M66.7,132.2l-1.9-6.5h-0.2l-2.1,6.5l2.1,0L66.7,132.2z"/>
	<path style="display:inline;" d="M88.8,133.5l0.1,4.8h-3.6L79,127.7h-0.2l0,5.2l0.1,5.4h-3l0.2-4.6l-0.1-11.1h3.5l6.4,10.6H86
		L86,122.8l3-0.2L88.8,133.5z"/>
	<path style="display:inline;" d="M107.1,138.3h-3.4l-0.4-2l-0.4-1.5l-3.1-0.1l-2.7,0.1l-0.4,1.3l-0.4,2.2H93l5.3-15.7h3.9
		L107.1,138.3z M102.2,132.2l-1.9-6.5h-0.2l-2.1,6.5l2.1,0L102.2,132.2z"/>
	<path style="display:inline;" d="M122,131.5c0.5,0.6,0.8,1.4,0.8,2.4c0,3-2.4,4.6-7.1,4.6c-1.4,0-2.8,0-4.3-0.1l0.2-4.7l-0.2-11
		l5.6,0c1.6,0,2.9,0.3,3.8,1c0.9,0.7,1.3,1.6,1.3,2.9c0,0.8-0.2,1.6-0.6,2.2c-0.4,0.6-1,1.1-1.8,1.4
		C120.7,130.4,121.5,130.9,122,131.5z M118.5,135.4c0.6-0.4,0.8-1,0.8-1.8c0-1.2-0.7-1.9-2.2-2.1l-2.7,0l0,1.7l0.1,2.6
		c0.6,0.1,1.1,0.1,1.7,0.1C117.2,136.1,118,135.9,118.5,135.4z M118,125.4c-0.4-0.3-1.2-0.5-2.2-0.5h-1.2l-0.1,4.3l2.3,0.1
		c0.6-0.2,1.1-0.4,1.4-0.8c0.3-0.4,0.5-0.9,0.5-1.6C118.6,126.2,118.4,125.7,118,125.4z"/>
	<path style="display:inline;" d="M139.7,138.3h-3.4l-0.4-2l-0.4-1.5l-3.1-0.1l-2.7,0.1l-0.4,1.3l-0.4,2.2h-3.3l5.3-15.7h3.9
		L139.7,138.3z M134.8,132.2l-1.9-6.5h-0.2l-2.1,6.5l2.1,0L134.8,132.2z"/>
	<path style="display:inline;" d="M156,137.5l0,0.4c-1.1,0.4-2.1,0.6-3.2,0.7l-0.3-0.3c-1.2-2-2.1-3.8-2.9-5.3h-2.4v0.3l0.1,5h-3.3
		l0.2-4.7l-0.2-11l6,0c1.6,0,2.9,0.4,3.8,1.2c0.9,0.8,1.3,2,1.3,3.4c0,1-0.3,1.9-0.8,2.8s-1.2,1.5-2.2,2.1
		C153.5,134.1,154.7,135.9,156,137.5z M147.2,130.5l2.4,0.1c1.4-0.5,2.1-1.5,2.1-3c0-0.8-0.2-1.5-0.7-1.9c-0.4-0.4-1.1-0.6-2.1-0.7
		l-1.7,0.1L147.2,130.5z"/>
</g>
<g>
	<path d="M109.1,102.6c3.6,0.4,6.9,1.9,9.5,4.2c0.3,0.3,0.7,0.6,1,0.9l9.2-7.2c-2.8-2.3-6.3-3.9-10.2-4.2V65.8
		c3.1-1.3,5.6-4,6.5-7.4c-4.3,0-8.2-1.5-11.4-3.9c-1.9,3.4-5.6,5.7-9.8,5.7c-4.2,0-7.9-2.3-9.8-5.7l-20,10.4c-1.9,0.9-3.2,2.8-3.2,5
		v11.3c-3.7,1.3-6.4,4.7-6.7,8.8H71l0,6.8c-1.4,0.9-2.8,2.2-2.8,2.2c-1.9,2-3.3,4.6-4,7.4c1.4,0.2,2.8,0.3,4.2,0.3
		c4.4,0,8.5-1,12.2-2.9l0-21.3v-0.3v-1.1c0-1.9,1.1-3.6,2.8-4.3l0-9.7c0.6-0.3,1.3-0.4,2-0.4s1.4,0.2,2,0.4l0,9.7
		c1.6,0.7,2.8,2.4,2.8,4.3v1.1v21c0.1,0,0.2,0,0.4,0c3.5,0,6.6,1.3,9.1,3.4V81.2c0-1.9,1.1-3.6,2.8-4.3v-9.7c0.6-0.3,1.3-0.4,2-0.4
		c0.7,0,1.4,0.2,1.9,0.4v9.7c0,0,0,0,0,0c1.6,0.7,2.8,2.4,2.8,4.3V102.6z"/>
</g>
<g>
	<path d="M44.1,138.2h-2.9l-0.2-4.7l-0.6-6h-0.2l-3.5,9.1h-2.6l-3.2-9.1h-0.2l-0.6,5.7l-0.3,5.1H27l1.6-15.7h3.8l0.6,2.3l2.5,7.4
		h0.2l2.6-7.4l0.7-2.3h3.7L44.1,138.2z"/>
	<path d="M61.3,138.2H58l-0.4-2l-0.4-1.5l-3.1-0.1l-2.7,0.1L51,136l-0.4,2.2h-3.3l5.3-15.7h3.9L61.3,138.2z M56.5,132.1l-1.8-6.5
		h-0.2l-2.1,6.5l2.1,0L56.5,132.1z"/>
	<path d="M78.4,133.4l0.1,4.8H75l-6.4-10.6h-0.2l0,5.2l0.1,5.4h-3l0.2-4.6l-0.1-11H69l6.4,10.6h0.2l-0.1-10.5l3-0.2L78.4,133.4z"/>
	<path d="M96.5,138.2h-3.4l-0.4-2l-0.4-1.5l-3.1-0.1l-2.7,0.1l-0.4,1.3l-0.4,2.2h-3.3l5.3-15.7h3.9L96.5,138.2z M91.6,132.1
		l-1.8-6.5h-0.2l-2.1,6.5l2.1,0L91.6,132.1z"/>
	<path d="M114.6,138.2h-3.5l-2.3-7.5h-0.2l-2.4,7.5h-3.5l-4.4-15.7h3.2l0.2,1.9l2.8,10.3h0.2l2.7-8.4l-1.1-3.8h3.4l0.4,2.3l2.8,10
		h0.2l3.2-10.1l0.4-2.1h3.1L114.6,138.2z"/>
	<path d="M135.2,138.2h-3.4l-0.4-2l-0.4-1.5l-3.1-0.1l-2.7,0.1l-0.4,1.3l-0.4,2.2h-3.3l5.3-15.7h3.9L135.2,138.2z M130.3,132.1
		l-1.8-6.5h-0.2l-2.1,6.5l2.1,0L130.3,132.1z"/>
	<path d="M145.6,138.2h-3.9l-4.8-15.7h3.4l0.4,2.1l3,10.5h0.2l3.4-10.4l0.4-2.2h3.3L145.6,138.2z"/>
	<path d="M164.4,135.5l0.2,0.3l-0.2,2.5h-9.8l0.2-4.7l-0.2-11h9.9l0.2,0.3l-0.2,2.5l-3.7-0.1l-2.8,0l-0.1,3.8l2.7,0l2.6-0.1l0.2,0.2
		l-0.2,2.5l-2.8-0.1l-2.5,0l0,1.7l0.1,2.4l2.8,0L164.4,135.5z"/>
</g>
</svg>
